<svg width="347" height="324" viewBox="0 0 347 324" fill="none" xmlns="http://www.w3.org/2000/svg">
<path opacity="0.15" d="M347 209.546C347 165.273 324.817 142.706 302.635 131.199H303.938C303.938 58.8464 245.453 0 173.518 0C101.582 0 43.0977 58.8464 43.0977 131.199H45.1399C22.7108 143.051 0 165.652 0 208.581C0 263.155 33.7669 284.758 59.6115 293.302C73.8717 298.022 88.6954 287.686 88.6954 272.974V145.221C88.6954 131.026 74.9633 120.931 61.3016 124.411C64.8226 64.9102 113.765 17.6057 173.518 17.6057C233.27 17.6057 282.213 64.9102 285.698 124.411C271.966 121 258.305 131.026 258.305 145.187V272.94C258.305 283.242 265.558 291.407 274.748 293.75C270.241 300.744 262.248 305.43 253.199 305.43H222.39V296.127H181.44V324H253.199C274.607 324 292.529 309.151 296.755 289.443C320.698 278.384 347 255.748 347 209.546Z" fill="url(#paint0_linear_536_6825)"/>
<defs>
<linearGradient id="paint0_linear_536_6825" x1="-54.2187" y1="162" x2="371.541" y2="162.039" gradientUnits="userSpaceOnUse">
<stop stop-color="#12F8D8"/>
<stop offset="0.456699" stop-color="#09BEC6"/>
<stop offset="1" stop-color="#007DB2"/>
</linearGradient>
</defs>
</svg>
