<svg width="136" height="86" viewBox="0 0 136 86" fill="none" xmlns="http://www.w3.org/2000/svg">
<g filter="url(#filter0_d_553_6800)">
<path d="M8.14495 30.1843L9.81927 26.4237C11.9066 28.0976 15.2258 29.2921 18.4269 29.2921C22.4911 29.2921 24.2023 27.8395 24.2023 25.9076C24.2023 20.2888 8.69814 23.9757 8.69814 14.2939C8.69814 10.0909 12.0542 6.51465 19.2088 6.51465C22.3362 6.51465 25.6184 7.33313 27.8902 8.82263L26.3634 12.5832C24.0179 11.2043 21.4437 10.5333 19.1719 10.5333C15.1447 10.5333 13.5072 12.0966 13.5072 14.0727C13.5072 19.6178 28.9745 16.0046 28.9745 25.5758C28.9745 29.7419 25.5815 33.3182 18.4269 33.3182C14.3628 33.3182 10.2987 32.0499 8.13757 30.1917L8.14495 30.1843Z" fill="white"/>
<path d="M45.3047 31.8656C44.1836 32.7579 42.5092 33.2077 40.8349 33.2077C36.4757 33.2077 33.9753 30.8997 33.9753 26.5123V16.9486H30.6931V13.2248H33.9753V8.68262H38.6369V13.2248H43.9696V16.9486H38.6369V26.4017C38.6369 28.3336 39.6031 29.3807 41.3955 29.3807C42.3617 29.3807 43.2984 29.1226 44.0065 28.5622L45.3121 31.873L45.3047 31.8656Z" fill="white"/>
<path d="M67.1078 24.4913H51.493C52.0536 27.3966 54.4729 29.2548 57.9396 29.2548C60.1745 29.2548 61.9299 28.5469 63.3461 27.0943L65.8465 29.9626C64.0542 32.0863 61.2587 33.1997 57.8363 33.1997C51.1611 33.1997 46.8389 28.9229 46.8389 23.0018C46.8389 17.0807 51.198 12.8408 57.1282 12.8408C63.0584 12.8408 67.1889 16.8964 67.1889 23.1124C67.1889 23.4811 67.152 24.0415 67.1152 24.4913H67.1078ZM51.4562 21.4017H62.7486C62.3725 18.5333 60.1745 16.5646 57.1208 16.5646C54.0672 16.5646 51.9061 18.4965 51.4562 21.4017Z" fill="white"/>
<path d="M87.7529 21.2911V32.9416H83.3569V30.523C82.2358 32.2338 80.0746 33.1997 77.0948 33.1997C72.5438 33.1997 69.6746 30.7074 69.6746 27.2417C69.6746 23.7761 71.9095 21.3206 77.9504 21.3206H83.0914V21.0257C83.0914 18.3121 81.4539 16.712 78.1348 16.712C75.8999 16.712 73.5838 17.4568 72.0939 18.6808L70.2647 15.2963C72.389 13.6593 75.4794 12.8408 78.688 12.8408C84.4264 12.8408 87.7455 15.5544 87.7455 21.2911H87.7529ZM83.0914 26.7256V24.4176H78.2823C75.1106 24.4176 74.2551 25.6121 74.2551 27.0574C74.2551 28.7312 75.6712 29.8152 78.0536 29.8152C80.436 29.8152 82.3021 28.7755 83.084 26.7256H83.0914Z" fill="white"/>
<path d="M127 21.5492V32.9343H122.338V22.1391C122.338 18.6071 120.701 16.889 117.869 16.889C114.815 16.889 112.691 18.902 112.691 22.847V32.9343H108.029V22.1391C108.029 18.6071 106.392 16.889 103.559 16.889C100.469 16.889 98.3816 18.902 98.3816 22.847V32.9343H93.72V13.0694H98.1529V15.5986C99.6429 13.8142 101.952 12.8408 104.673 12.8408C107.579 12.8408 110.006 13.9174 111.385 16.1516C112.986 14.1017 115.671 12.8408 118.842 12.8408C123.651 12.8408 127.007 15.5544 127.007 21.5492H127Z" fill="white"/>
<path d="M30.516 57.954C30.516 64.1332 26.2306 68.1519 20.4184 68.1519C17.8811 68.1519 15.6462 67.2965 14.0457 65.4752V75.1127H9.38409V48.0216H13.817V50.6245C15.3807 48.7294 17.6967 47.793 20.411 47.793C26.2232 47.793 30.5086 51.8117 30.5086 57.954H30.516ZM25.7807 57.954C25.7807 54.1565 23.2434 51.7379 19.8947 51.7379C16.5461 51.7379 13.9719 54.1565 13.9719 57.954C13.9719 61.7515 16.5461 64.17 19.8947 64.17C23.2434 64.17 25.7807 61.7515 25.7807 57.954Z" fill="white"/>
<path d="M34.9489 40.2783H39.6105V67.893H34.9489V40.2783Z" fill="white"/>
<path d="M64.9909 48.0215V67.8937H60.558V65.3645C59.0681 67.1858 56.7225 68.1592 54.1484 68.1592C49.0442 68.1592 45.5776 65.3645 45.5776 59.377V48.0289H50.2391V58.7503C50.2391 62.3634 51.9503 64.0741 54.9007 64.0741C58.1461 64.0741 60.3441 62.0611 60.3441 58.0793V48.0289H65.0057L64.9909 48.0215Z" fill="white"/>
<path d="M68.8264 65.9176L70.6114 62.3782C72.3668 63.5285 75.0443 64.3544 77.5447 64.3544C80.4877 64.3544 81.7195 63.5359 81.7195 62.157C81.7195 58.3595 69.4165 61.9358 69.4165 54.009C69.4165 50.2484 72.8094 47.793 78.179 47.793C80.827 47.793 83.8437 48.4271 85.6361 49.5037L83.8437 53.0431C81.9407 51.9296 80.0451 51.5536 78.1422 51.5536C75.3098 51.5536 73.9674 52.4827 73.9674 53.7878C73.9674 57.8065 86.2704 54.2376 86.2704 62.0095C86.2704 65.7333 82.8406 68.1519 77.2497 68.1519C73.9305 68.1519 70.6114 67.1859 68.8264 65.9176Z" fill="white"/>
</g>
<defs>
<filter id="filter0_d_553_6800" x="0.137573" y="0.514648" width="134.87" height="84.5977" filterUnits="userSpaceOnUse" color-interpolation-filters="sRGB">
<feFlood flood-opacity="0" result="BackgroundImageFix"/>
<feColorMatrix in="SourceAlpha" type="matrix" values="0 0 0 0 0 0 0 0 0 0 0 0 0 0 0 0 0 0 127 0" result="hardAlpha"/>
<feOffset dy="2"/>
<feGaussianBlur stdDeviation="4"/>
<feComposite in2="hardAlpha" operator="out"/>
<feColorMatrix type="matrix" values="0 0 0 0 0 0 0 0 0 0 0 0 0 0 0 0 0 0 0.25 0"/>
<feBlend mode="normal" in2="BackgroundImageFix" result="effect1_dropShadow_553_6800"/>
<feBlend mode="normal" in="SourceGraphic" in2="effect1_dropShadow_553_6800" result="shape"/>
</filter>
</defs>
</svg>
