<svg width="119" height="70" viewBox="0 0 119 70" fill="none" xmlns="http://www.w3.org/2000/svg">
<path d="M0.144951 24.1843L1.81927 20.4237C3.90665 22.0976 7.2258 23.2921 10.4269 23.2921C14.4911 23.2921 16.2023 21.8395 16.2023 19.9076C16.2023 14.2888 0.698142 17.9757 0.698142 8.29394C0.698142 4.09091 4.05417 0.514648 11.2088 0.514648C14.3362 0.514648 17.6184 1.33313 19.8902 2.82263L18.3634 6.58323C16.0179 5.20435 13.4437 4.53333 11.1719 4.53333C7.14466 4.53333 5.50722 6.09657 5.50722 8.07273C5.50722 13.6178 20.9745 10.0046 20.9745 19.5758C20.9745 23.7419 17.5815 27.3182 10.4269 27.3182C6.36282 27.3182 2.29871 26.0499 0.137573 24.1917L0.144951 24.1843Z" fill="white"/>
<path d="M37.3047 25.8656C36.1836 26.7579 34.5092 27.2077 32.8349 27.2077C28.4757 27.2077 25.9753 24.8997 25.9753 20.5123V10.9486H22.6931V7.22484H25.9753V2.68262H30.6369V7.22484H35.9696V10.9486H30.6369V20.4017C30.6369 22.3336 31.6031 23.3807 33.3955 23.3807C34.3617 23.3807 35.2984 23.1226 36.0065 22.5622L37.3121 25.873L37.3047 25.8656Z" fill="white"/>
<path d="M59.1078 18.4913H43.493C44.0536 21.3966 46.4729 23.2548 49.9396 23.2548C52.1745 23.2548 53.9299 22.5469 55.3461 21.0943L57.8465 23.9626C56.0542 26.0863 53.2587 27.1997 49.8363 27.1997C43.1611 27.1997 38.8389 22.9229 38.8389 17.0018C38.8389 11.0807 43.198 6.84082 49.1282 6.84082C55.0584 6.84082 59.1889 10.8964 59.1889 17.1124C59.1889 17.4811 59.152 18.0415 59.1152 18.4913H59.1078ZM43.4562 15.4017H54.7486C54.3725 12.5333 52.1745 10.5646 49.1208 10.5646C46.0672 10.5646 43.9061 12.4965 43.4562 15.4017Z" fill="white"/>
<path d="M79.7529 15.2911V26.9416H75.3569V24.523C74.2358 26.2338 72.0746 27.1997 69.0948 27.1997C64.5438 27.1997 61.6746 24.7074 61.6746 21.2417C61.6746 17.7761 63.9095 15.3206 69.9504 15.3206H75.0914V15.0257C75.0914 12.3121 73.4539 10.712 70.1348 10.712C67.8999 10.712 65.5838 11.4568 64.0939 12.6808L62.2647 9.29627C64.389 7.65931 67.4794 6.84082 70.688 6.84082C76.4264 6.84082 79.7455 9.55436 79.7455 15.2911H79.7529ZM75.0914 20.7256V18.4176H70.2823C67.1106 18.4176 66.2551 19.6121 66.2551 21.0574C66.2551 22.7312 67.6712 23.8152 70.0536 23.8152C72.436 23.8152 74.3021 22.7755 75.084 20.7256H75.0914Z" fill="white"/>
<path d="M119 15.5492V26.9343H114.338V16.1391C114.338 12.6071 112.701 10.889 109.869 10.889C106.815 10.889 104.691 12.902 104.691 16.847V26.9343H100.029V16.1391C100.029 12.6071 98.3918 10.889 95.5595 10.889C92.469 10.889 90.3816 12.902 90.3816 16.847V26.9343H85.72V7.06941H90.1529V9.5986C91.6429 7.81415 93.9515 6.84082 96.6732 6.84082C99.5793 6.84082 102.006 7.91739 103.385 10.1516C104.986 8.10173 107.671 6.84082 110.842 6.84082C115.651 6.84082 119.007 9.55436 119.007 15.5492H119Z" fill="white"/>
<path d="M22.516 51.954C22.516 58.1332 18.2306 62.1519 12.4184 62.1519C9.88112 62.1519 7.64622 61.2965 6.04565 59.4752V69.1127H1.38409V42.0216H5.817V44.6245C7.38069 42.7294 9.69672 41.793 12.411 41.793C18.2232 41.793 22.5086 45.8117 22.5086 51.954H22.516ZM17.7807 51.954C17.7807 48.1565 15.2434 45.7379 11.8947 45.7379C8.54608 45.7379 5.97189 48.1565 5.97189 51.954C5.97189 55.7515 8.54608 58.17 11.8947 58.17C15.2434 58.17 17.7807 55.7515 17.7807 51.954Z" fill="white"/>
<path d="M26.9489 34.2783H31.6105V61.893H26.9489V34.2783Z" fill="white"/>
<path d="M56.9909 42.0215V61.8937H52.558V59.3645C51.0681 61.1858 48.7225 62.1592 46.1484 62.1592C41.0442 62.1592 37.5776 59.3645 37.5776 53.377V42.0289H42.2391V52.7503C42.2391 56.3634 43.9503 58.0741 46.9007 58.0741C50.1461 58.0741 52.3441 56.0611 52.3441 52.0793V42.0289H57.0057L56.9909 42.0215Z" fill="white"/>
<path d="M60.8264 59.9176L62.6114 56.3782C64.3668 57.5285 67.0443 58.3544 69.5447 58.3544C72.4877 58.3544 73.7195 57.5359 73.7195 56.157C73.7195 52.3595 61.4165 55.9358 61.4165 48.009C61.4165 44.2484 64.8094 41.793 70.179 41.793C72.827 41.793 75.8437 42.4271 77.6361 43.5037L75.8437 47.0431C73.9407 45.9296 72.0451 45.5536 70.1422 45.5536C67.3098 45.5536 65.9674 46.4827 65.9674 47.7878C65.9674 51.8065 78.2704 48.2376 78.2704 56.0095C78.2704 59.7333 74.8406 62.1519 69.2497 62.1519C65.9305 62.1519 62.6114 61.1859 60.8264 59.9176Z" fill="white"/>
</svg>
