<svg width="77" height="73" viewBox="0 0 77 73" fill="none" xmlns="http://www.w3.org/2000/svg">
<path d="M76.5101 47.2141C76.5101 37.2448 71.6199 32.1569 66.7223 29.5687H67.0099C67.0099 13.2654 54.1095 0 38.2587 0C22.4079 0 9.50014 13.2654 9.50014 29.5613H9.95007C5.00823 32.2306 0 37.3185 0 46.9928C0 59.2922 7.44227 64.1589 13.1438 66.0761C16.2933 67.1379 19.5535 64.8078 19.5535 61.4896V32.7025C19.5535 29.5023 16.522 27.2312 13.5126 28.0128C14.2871 14.6074 25.0854 3.94495 38.2514 3.94495C51.4173 3.94495 62.223 14.6074 62.9901 28.0128C59.9586 27.2386 56.9492 29.5097 56.9492 32.6952V61.4822C56.9492 63.805 58.5498 65.641 60.5782 66.1719C59.5824 67.7499 57.827 68.8044 55.8207 68.8044H49.0275V66.7102H39.9921V72.9926H55.8207C60.5413 72.9926 64.4948 69.645 65.4241 65.206C70.7053 62.7136 76.5027 57.6184 76.5027 47.2067L76.5101 47.2141Z" fill="url(#paint0_linear_553_6788)"/>
<defs>
<linearGradient id="paint0_linear_553_6788" x1="-5.60567" y1="22.571" x2="82.8487" y2="50.2741" gradientUnits="userSpaceOnUse">
<stop stop-color="#12F8D8"/>
<stop offset="0.45" stop-color="#00B4C7"/>
<stop offset="1" stop-color="#0076B9"/>
</linearGradient>
</defs>
</svg>
